<!--?xml version="1.0" encoding="us-ascii" standalone="no"?--><svg xmlns="http://www.w3.org/2000/svg" xmlns:xlink="http://www.w3.org/1999/xlink" contentstyletype="text/css" height="961px" preserveAspectRatio="none" style="width:513px;height:961px;background:#FFFFFF;" version="1.1" viewBox="0 0 513 961" width="513px" zoomAndPan="magnify"><defs></defs><g><!--cluster Online Gas Booking System--><g id="cluster_Online Gas Booking System"><rect fill="none" height="948" rx="2.5" ry="2.5" style="stroke:#181818;stroke-width:1.0;" width="241.07" x="118" y="7"></rect><text fill="#000000" font-family="sans-serif" font-size="14" font-weight="bold" lengthAdjust="spacing" textLength="216" x="130.535" y="21.9951">Online Gas Booking System</text></g><g id="elem_Register"><ellipse cx="238.5272" cy="57.0015" fill="#F1F1F1" rx="53.3472" ry="14.7215" style="stroke:#181818;stroke-width:0.5;"></ellipse><text fill="#000000" font-family="sans-serif" font-size="14" lengthAdjust="spacing" textLength="58" x="206.5272" y="60.749">Register</text></g><g id="elem_Login"><ellipse cx="238.5331" cy="120.9985" fill="#F1F1F1" rx="37.7231" ry="14.5485" style="stroke:#181818;stroke-width:0.5;"></ellipse><text fill="#000000" font-family="sans-serif" font-size="14" lengthAdjust="spacing" textLength="37" x="218.4216" y="124.3812">Login</text></g><g id="elem_Book Gas"><ellipse cx="238.5264" cy="185.0022" fill="#F1F1F1" rx="60.0664" ry="14.7722" style="stroke:#181818;stroke-width:0.5;"></ellipse><text fill="#000000" font-family="sans-serif" font-size="14" lengthAdjust="spacing" textLength="67" x="202.0264" y="188.7498">Book Gas</text></g><g id="elem_View Order History"><ellipse cx="238.5279" cy="253.9976" fill="#F1F1F1" rx="83.1379" ry="19.0276" style="stroke:#181818;stroke-width:0.5;"></ellipse><text fill="#000000" font-family="sans-serif" font-size="14" lengthAdjust="spacing" textLength="126" x="174.9814" y="257.0294">View Order History</text></g><g id="elem_Cancel Order"><ellipse cx="238.534" cy="324.0028" fill="#F1F1F1" rx="68.964" ry="16.1928" style="stroke:#181818;stroke-width:0.5;"></ellipse><text fill="#000000" font-family="sans-serif" font-size="14" lengthAdjust="spacing" textLength="90" x="190.534" y="327.7504">Cancel Order</text></g><g id="elem_Authenticate User"><ellipse cx="238.528" cy="393.9976" fill="#F1F1F1" rx="82.288" ry="18.8576" style="stroke:#181818;stroke-width:0.5;"></ellipse><text fill="#000000" font-family="sans-serif" font-size="14" lengthAdjust="spacing" textLength="124" x="175.6905" y="397.1238">Authenticate User</text></g><g id="elem_Assign Delivery Person"><ellipse cx="238.5293" cy="470.0019" fill="#F1F1F1" rx="96.8093" ry="21.7619" style="stroke:#181818;stroke-width:0.5;"></ellipse><text fill="#000000" font-family="sans-serif" font-size="14" lengthAdjust="spacing" textLength="157" x="160.0293" y="472.8485">Assign Delivery Person</text></g><g id="elem_Update Delivery Status"><ellipse cx="238.5291" cy="548.0018" fill="#F1F1F1" rx="96.3591" ry="21.6718" style="stroke:#181818;stroke-width:0.5;"></ellipse><text fill="#000000" font-family="sans-serif" font-size="14" lengthAdjust="spacing" textLength="156" x="160.5291" y="550.8485">Update Delivery Status</text></g><g id="elem_Manage Users"><ellipse cx="238.5273" cy="622.0015" fill="#F1F1F1" rx="72.3073" ry="16.8615" style="stroke:#181818;stroke-width:0.5;"></ellipse><text fill="#000000" font-family="sans-serif" font-size="14" lengthAdjust="spacing" textLength="99" x="186.0273" y="625.749">Manage Users</text></g><g id="elem_Manage Orders"><ellipse cx="238.5348" cy="690.999" fill="#F1F1F1" rx="74.9948" ry="17.399" style="stroke:#181818;stroke-width:0.5;"></ellipse><text fill="#000000" font-family="sans-serif" font-size="14" lengthAdjust="spacing" textLength="106" x="182.5348" y="694.7465">Manage Orders</text></g><g id="elem_Manage Delivery Persons"><ellipse cx="238.5329" cy="766.9966" fill="#F1F1F1" rx="104.5329" ry="23.3066" style="stroke:#181818;stroke-width:0.5;"></ellipse><text fill="#000000" font-family="sans-serif" font-size="14" lengthAdjust="spacing" textLength="174" x="151.5329" y="769.8433">Manage Delivery Persons</text></g><g id="elem_Process Payment"><ellipse cx="238.5307" cy="844.0021" fill="#F1F1F1" rx="80.6107" ry="18.5221" style="stroke:#181818;stroke-width:0.5;"></ellipse><text fill="#000000" font-family="sans-serif" font-size="14" lengthAdjust="spacing" textLength="120" x="177.0926" y="847.3148">Process Payment</text></g><g id="elem_Provide User Support"><ellipse cx="238.5272" cy="917.9974" fill="#F1F1F1" rx="91.8872" ry="20.7774" style="stroke:#181818;stroke-width:0.5;"></ellipse><text fill="#000000" font-family="sans-serif" font-size="14" lengthAdjust="spacing" textLength="146" x="165.5272" y="920.8441">Provide User Support</text></g><!--entity C--><g id="elem_C"><ellipse cx="40" cy="190.35" fill="#F1F1F1" rx="8" ry="8" style="stroke:#181818;stroke-width:0.5;"></ellipse><path d="M40,198.35 L40,225.35 M27,206.35 L53,206.35 M40,225.35 L27,240.35 M40,225.35 L53,240.35 " fill="none" style="stroke:#181818;stroke-width:0.5;"></path><text fill="#000000" font-family="sans-serif" font-size="14" lengthAdjust="spacing" textLength="68" x="6" y="254.8451">Customer</text></g><!--entity DP--><g id="elem_DP"><ellipse cx="454.57" cy="479.35" fill="#F1F1F1" rx="8" ry="8" style="stroke:#181818;stroke-width:0.5;"></ellipse><path d="M454.57,487.35 L454.57,514.35 M441.57,495.35 L467.57,495.35 M454.57,514.35 L441.57,529.35 M454.57,514.35 L467.57,529.35 " fill="none" style="stroke:#181818;stroke-width:0.5;"></path><text fill="#000000" font-family="sans-serif" font-size="14" lengthAdjust="spacing" textLength="103" x="403.07" y="543.8451">DeliveryPerson</text></g><!--entity A--><g id="elem_A"><ellipse cx="454.57" cy="737.35" fill="#F1F1F1" rx="8" ry="8" style="stroke:#181818;stroke-width:0.5;"></ellipse><path d="M454.57,745.35 L454.57,772.35 M441.57,753.35 L467.57,753.35 M454.57,772.35 L441.57,787.35 M454.57,772.35 L467.57,787.35 " fill="none" style="stroke:#181818;stroke-width:0.5;"></path><text fill="#000000" font-family="sans-serif" font-size="14" lengthAdjust="spacing" textLength="43" x="433.07" y="801.8451">Admin</text></g><!--link C to Register--><g id="link_C_Register"><path d="M51.82,181.37 C62.07,151.8 80.39,112.26 110,89 C131.54,72.08 160.91,63.99 186.03,60.17 " fill="none" id="C-Register" style="stroke:#181818;stroke-width:1.0;"></path></g><!--link C to Login--><g id="link_C_Login"><path d="M73.5,181.59 C84.17,171 96.73,160.39 110,153 C138.62,137.06 175.22,128.93 201.87,124.87 " fill="none" id="C-Login" style="stroke:#181818;stroke-width:1.0;"></path></g><!--link C to Book Gas--><g id="link_C_Book Gas"><path d="M74.34,214.06 C105.77,208.47 153.24,200.01 188.89,193.66 " fill="none" id="C-Book Gas" style="stroke:#181818;stroke-width:1.0;"></path></g><!--link C to View Order History--><g id="link_C_View Order History"><path d="M74.34,225.77 C100.84,230.35 138.75,236.91 171.36,242.55 " fill="none" id="C-View Order History" style="stroke:#181818;stroke-width:1.0;"></path></g><!--link C to Cancel Order--><g id="link_C_Cancel Order"><path d="M71.11,258.45 C82.19,270.4 95.58,282.62 110,291 C130.76,303.07 155.95,310.79 178.44,315.69 " fill="none" id="C-Cancel Order" style="stroke:#181818;stroke-width:1.0;"></path></g><!--link C to Authenticate User--><g id="link_C_Authenticate User"><path d="M50.87,258.53 C60.8,289.7 79.14,332.47 110,358 C125.87,371.12 146.23,379.47 166,384.78 " fill="none" id="C-Authenticate User" style="stroke:#181818;stroke-width:1.0;"></path></g><!--link Assign Delivery Person to DP--><g id="link_Assign Delivery Person_DP"><path d="M314.99,483.75 C344,489.04 376.4,494.94 402.57,499.71 " fill="none" id="Assign Delivery Person-DP" style="stroke:#181818;stroke-width:1.0;"></path></g><!--link Update Delivery Status to DP--><g id="link_Update Delivery Status_DP"><path d="M314.69,534.3 C343.84,528.99 376.46,523.05 402.76,518.26 " fill="none" id="Update Delivery Status-DP" style="stroke:#181818;stroke-width:1.0;"></path></g><!--link Manage Users to A--><g id="link_Manage Users_A"><path d="M302.28,630.33 C324.08,635.32 347.86,643.29 367.07,656 C394.77,674.34 417.45,704.52 432.63,728.78 " fill="none" id="Manage Users-A" style="stroke:#181818;stroke-width:1.0;"></path></g><!--link Manage Orders to A--><g id="link_Manage Orders_A"><path d="M292.62,703.35 C315.78,709.31 343.06,717.1 367.07,726 C390.13,734.55 415.43,746.92 432.68,755.83 " fill="none" id="Manage Orders-A" style="stroke:#181818;stroke-width:1.0;"></path></g><!--link Manage Delivery Persons to A--><g id="link_Manage Delivery Persons_A"><path d="M343.41,767 C377.28,767 411.57,767 432.69,767 " fill="none" id="Manage Delivery Persons-A" style="stroke:#181818;stroke-width:1.0;"></path></g><!--link Process Payment to A--><g id="link_Process Payment_A"><path d="M295.11,830.48 C317.71,824.43 343.91,816.69 367.07,808 C390.09,799.36 415.41,787.01 432.67,778.12 " fill="none" id="Process Payment-A" style="stroke:#181818;stroke-width:1.0;"></path></g><!--link Provide User Support to A--><g id="link_Provide User Support_A"><path d="M311.58,905 C330.72,899.36 350.61,891.34 367.07,880 C394.73,860.93 417.41,830.23 432.6,805.64 " fill="none" id="Provide User Support-A" style="stroke:#181818;stroke-width:1.0;"></path></g><!--SRC=[POz1Ri9034NtEON52XOS8WrIkw0YQaJteyGTh2Psv76eegftxmo1X9RblFU_nsxnmy04bFp9e275saWuSxM9GZ44amuLN83YodROqXbrB563S3AxyghofgCBoRCi3NBiMuJLWLjYXESedaG-YJrKOp3iLl2T0HImtSBw3Jr5ffkPxCKJByzKJJCMyaxu1GTjuduliIiwBgvmN6CxsONcWvsGZMfd2CUGL7JhF0JoF5y6qscRL8ctnS2nRr9Z3bJcR0YtG4gyEdP-cZdn_8vUjdZ4__wx2vGgDOO0fHkxkEyVSQPc-WUgeUz5R_Rd5m00]--></g></svg>